<svg width="262" height="220" viewBox="0 0 262 220" fill="none" xmlns="http://www.w3.org/2000/svg">
<rect width="262" height="220" fill="#F3F5F7"/>
<rect x="36" y="56" width="40" height="32" rx="4" stroke="#141718" stroke-width="2.5"/>
<circle cx="4" cy="4" r="4" transform="matrix(1 0 0 -1 52 76)" stroke="#141718" stroke-width="2.5"/>
<circle cx="2" cy="2" r="2" transform="matrix(1 0 0 -1 66 74)" fill="#141718"/>
<circle cx="2" cy="2" r="2" transform="matrix(1 0 0 -1 42 74)" fill="#141718"/>
<path d="M48.14 119.1V133H45.86V123.48L41.62 133H40.04L35.78 123.48V133H33.5V119.1H35.96L40.84 130L45.7 119.1H48.14ZM55.9167 133.18C54.8767 133.18 53.9367 132.947 53.0967 132.48C52.2567 132 51.5967 131.333 51.1167 130.48C50.6367 129.613 50.3967 128.613 50.3967 127.48C50.3967 126.36 50.6434 125.367 51.1367 124.5C51.6301 123.633 52.3034 122.967 53.1567 122.5C54.0101 122.033 54.9634 121.8 56.0167 121.8C57.0701 121.8 58.0234 122.033 58.8767 122.5C59.7301 122.967 60.4034 123.633 60.8967 124.5C61.3901 125.367 61.6367 126.36 61.6367 127.48C61.6367 128.6 61.3834 129.593 60.8767 130.46C60.3701 131.327 59.6767 132 58.7967 132.48C57.9301 132.947 56.9701 133.18 55.9167 133.18ZM55.9167 131.2C56.5034 131.2 57.0501 131.06 57.5567 130.78C58.0767 130.5 58.4967 130.08 58.8167 129.52C59.1367 128.96 59.2967 128.28 59.2967 127.48C59.2967 126.68 59.1434 126.007 58.8367 125.46C58.5301 124.9 58.1234 124.48 57.6167 124.2C57.1101 123.92 56.5634 123.78 55.9767 123.78C55.3901 123.78 54.8434 123.92 54.3367 124.2C53.8434 124.48 53.4501 124.9 53.1567 125.46C52.8634 126.007 52.7167 126.68 52.7167 127.48C52.7167 128.667 53.0167 129.587 53.6167 130.24C54.2301 130.88 54.9967 131.2 55.9167 131.2ZM69.4506 121.8C70.3173 121.8 71.0906 121.98 71.7706 122.34C72.464 122.7 73.004 123.233 73.3906 123.94C73.7773 124.647 73.9706 125.5 73.9706 126.5V133H71.7106V126.84C71.7106 125.853 71.464 125.1 70.9706 124.58C70.4773 124.047 69.804 123.78 68.9506 123.78C68.0973 123.78 67.4173 124.047 66.9106 124.58C66.4173 125.1 66.1706 125.853 66.1706 126.84V133H63.8906V121.98H66.1706V123.24C66.544 122.787 67.0173 122.433 67.5906 122.18C68.1773 121.927 68.7973 121.8 69.4506 121.8ZM86.9789 127.22C86.9789 127.633 86.9522 128.007 86.8989 128.34H78.4789C78.5456 129.22 78.8722 129.927 79.4589 130.46C80.0456 130.993 80.7656 131.26 81.6189 131.26C82.8456 131.26 83.7122 130.747 84.2189 129.72H86.6789C86.3456 130.733 85.7389 131.567 84.8589 132.22C83.9922 132.86 82.9122 133.18 81.6189 133.18C80.5656 133.18 79.6189 132.947 78.7789 132.48C77.9522 132 77.2989 131.333 76.8189 130.48C76.3522 129.613 76.1189 128.613 76.1189 127.48C76.1189 126.347 76.3456 125.353 76.7989 124.5C77.2656 123.633 77.9122 122.967 78.7389 122.5C79.5789 122.033 80.5389 121.8 81.6189 121.8C82.6589 121.8 83.5856 122.027 84.3989 122.48C85.2122 122.933 85.8456 123.573 86.2989 124.4C86.7522 125.213 86.9789 126.153 86.9789 127.22ZM84.5989 126.5C84.5856 125.66 84.2856 124.987 83.6989 124.48C83.1122 123.973 82.3856 123.72 81.5189 123.72C80.7322 123.72 80.0589 123.973 79.4989 124.48C78.9389 124.973 78.6056 125.647 78.4989 126.5H84.5989ZM99.1427 121.98L92.3827 138.18H90.0227L92.2627 132.82L87.9227 121.98H90.4627L93.5627 130.38L96.7827 121.98H99.1427ZM109.323 124.8V126.72H101.103V124.8H109.323ZM114.843 123.62C115.229 123.087 115.756 122.653 116.423 122.32C117.103 121.973 117.856 121.8 118.683 121.8C119.656 121.8 120.536 122.033 121.323 122.5C122.109 122.967 122.729 123.633 123.183 124.5C123.636 125.353 123.863 126.333 123.863 127.44C123.863 128.547 123.636 129.54 123.183 130.42C122.729 131.287 122.103 131.967 121.303 132.46C120.516 132.94 119.643 133.18 118.683 133.18C117.829 133.18 117.069 133.013 116.403 132.68C115.749 132.347 115.229 131.92 114.843 131.4V133H112.563V118.2H114.843V123.62ZM121.543 127.44C121.543 126.68 121.383 126.027 121.062 125.48C120.756 124.92 120.343 124.5 119.823 124.22C119.316 123.927 118.769 123.78 118.183 123.78C117.609 123.78 117.063 123.927 116.543 124.22C116.036 124.513 115.623 124.94 115.303 125.5C114.996 126.06 114.843 126.72 114.843 127.48C114.843 128.24 114.996 128.907 115.303 129.48C115.623 130.04 116.036 130.467 116.543 130.76C117.063 131.053 117.609 131.2 118.183 131.2C118.769 131.2 119.316 131.053 119.823 130.76C120.343 130.453 120.756 130.013 121.062 129.44C121.383 128.867 121.543 128.2 121.543 127.44ZM125.357 127.44C125.357 126.333 125.584 125.353 126.037 124.5C126.504 123.647 127.131 122.987 127.917 122.52C128.717 122.04 129.597 121.8 130.557 121.8C131.424 121.8 132.177 121.973 132.817 122.32C133.471 122.653 133.991 123.073 134.377 123.58V121.98H136.677V133H134.377V131.36C133.991 131.88 133.464 132.313 132.797 132.66C132.131 133.007 131.371 133.18 130.517 133.18C129.571 133.18 128.704 132.94 127.917 132.46C127.131 131.967 126.504 131.287 126.037 130.42C125.584 129.54 125.357 128.547 125.357 127.44ZM134.377 127.48C134.377 126.72 134.217 126.06 133.897 125.5C133.591 124.94 133.184 124.513 132.677 124.22C132.171 123.927 131.624 123.78 131.037 123.78C130.451 123.78 129.904 123.927 129.397 124.22C128.891 124.5 128.477 124.92 128.157 125.48C127.851 126.027 127.697 126.68 127.697 127.44C127.697 128.2 127.851 128.867 128.157 129.44C128.477 130.013 128.891 130.453 129.397 130.76C129.917 131.053 130.464 131.2 131.037 131.2C131.624 131.2 132.171 131.053 132.677 130.76C133.184 130.467 133.591 130.04 133.897 129.48C134.217 128.907 134.377 128.24 134.377 127.48ZM138.912 127.48C138.912 126.347 139.139 125.353 139.592 124.5C140.059 123.633 140.699 122.967 141.512 122.5C142.325 122.033 143.259 121.8 144.312 121.8C145.645 121.8 146.745 122.12 147.612 122.76C148.492 123.387 149.085 124.287 149.392 125.46H146.932C146.732 124.913 146.412 124.487 145.972 124.18C145.532 123.873 144.979 123.72 144.312 123.72C143.379 123.72 142.632 124.053 142.072 124.72C141.525 125.373 141.252 126.293 141.252 127.48C141.252 128.667 141.525 129.593 142.072 130.26C142.632 130.927 143.379 131.26 144.312 131.26C145.632 131.26 146.505 130.68 146.932 129.52H149.392C149.072 130.64 148.472 131.533 147.592 132.2C146.712 132.853 145.619 133.18 144.312 133.18C143.259 133.18 142.325 132.947 141.512 132.48C140.699 132 140.059 131.333 139.592 130.48C139.139 129.613 138.912 128.613 138.912 127.48ZM156.024 127.5L161.104 133H158.024L153.944 128.26V133H151.664V118.2H153.944V126.8L157.944 121.98H161.104L156.024 127.5Z" fill="#141718"/>
<path d="M32.84 157.426C32.9053 156.567 33.2367 155.895 33.834 155.41C34.4313 154.925 35.206 154.682 36.158 154.682C36.7927 154.682 37.3387 154.799 37.796 155.032C38.2627 155.256 38.6127 155.564 38.846 155.956C39.0887 156.348 39.21 156.791 39.21 157.286C39.21 157.865 39.042 158.364 38.706 158.784C38.3793 159.204 37.95 159.475 37.418 159.596V159.666C38.0247 159.815 38.5053 160.109 38.86 160.548C39.2147 160.987 39.392 161.561 39.392 162.27C39.392 162.802 39.2707 163.283 39.028 163.712C38.7853 164.132 38.4213 164.463 37.936 164.706C37.4507 164.949 36.8673 165.07 36.186 165.07C35.1967 165.07 34.3847 164.813 33.75 164.3C33.1153 163.777 32.7607 163.04 32.686 162.088H33.918C33.9833 162.648 34.212 163.105 34.604 163.46C34.996 163.815 35.5187 163.992 36.172 163.992C36.8253 163.992 37.32 163.824 37.656 163.488C38.0013 163.143 38.174 162.699 38.174 162.158C38.174 161.458 37.9407 160.954 37.474 160.646C37.0073 160.338 36.3027 160.184 35.36 160.184H35.038V159.12H35.374C36.2327 159.111 36.8813 158.971 37.32 158.7C37.7587 158.42 37.978 157.991 37.978 157.412C37.978 156.917 37.8147 156.521 37.488 156.222C37.1707 155.923 36.7133 155.774 36.116 155.774C35.5373 155.774 35.0707 155.923 34.716 156.222C34.3613 156.521 34.1513 156.922 34.086 157.426H32.84ZM41.1121 159.834C41.1121 158.229 41.3735 156.978 41.8961 156.082C42.4188 155.177 43.3335 154.724 44.6401 154.724C45.9375 154.724 46.8475 155.177 47.3701 156.082C47.8928 156.978 48.1541 158.229 48.1541 159.834C48.1541 161.467 47.8928 162.737 47.3701 163.642C46.8475 164.547 45.9375 165 44.6401 165C43.3335 165 42.4188 164.547 41.8961 163.642C41.3735 162.737 41.1121 161.467 41.1121 159.834ZM46.8941 159.834C46.8941 159.022 46.8381 158.336 46.7261 157.776C46.6235 157.207 46.4041 156.749 46.0681 156.404C45.7415 156.059 45.2655 155.886 44.6401 155.886C44.0055 155.886 43.5201 156.059 43.1841 156.404C42.8575 156.749 42.6381 157.207 42.5261 157.776C42.4235 158.336 42.3721 159.022 42.3721 159.834C42.3721 160.674 42.4235 161.379 42.5261 161.948C42.6381 162.517 42.8575 162.975 43.1841 163.32C43.5201 163.665 44.0055 163.838 44.6401 163.838C45.2655 163.838 45.7415 163.665 46.0681 163.32C46.4041 162.975 46.6235 162.517 46.7261 161.948C46.8381 161.379 46.8941 160.674 46.8941 159.834ZM53.3696 161.136C53.3696 160.352 53.5282 159.666 53.8456 159.078C54.1629 158.481 54.5969 158.019 55.1476 157.692C55.7076 157.365 56.3329 157.202 57.0236 157.202C57.6209 157.202 58.1762 157.342 58.6896 157.622C59.2029 157.893 59.5949 158.252 59.8656 158.7V154.64H61.1536V165H59.8656V163.558C59.6136 164.015 59.2402 164.393 58.7456 164.692C58.2509 164.981 57.6722 165.126 57.0096 165.126C56.3282 165.126 55.7076 164.958 55.1476 164.622C54.5969 164.286 54.1629 163.815 53.8456 163.208C53.5282 162.601 53.3696 161.911 53.3696 161.136ZM59.8656 161.15C59.8656 160.571 59.7489 160.067 59.5156 159.638C59.2822 159.209 58.9649 158.882 58.5636 158.658C58.1716 158.425 57.7376 158.308 57.2616 158.308C56.7856 158.308 56.3516 158.42 55.9596 158.644C55.5676 158.868 55.2549 159.195 55.0216 159.624C54.7882 160.053 54.6716 160.557 54.6716 161.136C54.6716 161.724 54.7882 162.237 55.0216 162.676C55.2549 163.105 55.5676 163.437 55.9596 163.67C56.3516 163.894 56.7856 164.006 57.2616 164.006C57.7376 164.006 58.1716 163.894 58.5636 163.67C58.9649 163.437 59.2822 163.105 59.5156 162.676C59.7489 162.237 59.8656 161.729 59.8656 161.15ZM62.8305 161.136C62.8305 160.352 62.9892 159.666 63.3065 159.078C63.6238 158.481 64.0578 158.019 64.6085 157.692C65.1685 157.365 65.7892 157.202 66.4705 157.202C67.1425 157.202 67.7258 157.347 68.2205 157.636C68.7152 157.925 69.0838 158.289 69.3265 158.728V157.328H70.6145V165H69.3265V163.572C69.0745 164.02 68.6965 164.393 68.1925 164.692C67.6978 164.981 67.1192 165.126 66.4565 165.126C65.7752 165.126 65.1592 164.958 64.6085 164.622C64.0578 164.286 63.6238 163.815 63.3065 163.208C62.9892 162.601 62.8305 161.911 62.8305 161.136ZM69.3265 161.15C69.3265 160.571 69.2098 160.067 68.9765 159.638C68.7432 159.209 68.4258 158.882 68.0245 158.658C67.6325 158.425 67.1985 158.308 66.7225 158.308C66.2465 158.308 65.8125 158.42 65.4205 158.644C65.0285 158.868 64.7158 159.195 64.4825 159.624C64.2492 160.053 64.1325 160.557 64.1325 161.136C64.1325 161.724 64.2492 162.237 64.4825 162.676C64.7158 163.105 65.0285 163.437 65.4205 163.67C65.8125 163.894 66.2465 164.006 66.7225 164.006C67.1985 164.006 67.6325 163.894 68.0245 163.67C68.4258 163.437 68.7432 163.105 68.9765 162.676C69.2098 162.237 69.3265 161.729 69.3265 161.15ZM79.3755 157.328L74.7555 168.612H73.4395L74.9515 164.916L71.8575 157.328H73.2715L75.6795 163.544L78.0595 157.328H79.3755ZM83.3721 165.126C82.7841 165.126 82.2568 165.028 81.7901 164.832C81.3235 164.627 80.9548 164.347 80.6841 163.992C80.4135 163.628 80.2641 163.213 80.2361 162.746H81.5521C81.5895 163.129 81.7668 163.441 82.0841 163.684C82.4108 163.927 82.8355 164.048 83.3581 164.048C83.8435 164.048 84.2261 163.941 84.5061 163.726C84.7861 163.511 84.9261 163.241 84.9261 162.914C84.9261 162.578 84.7768 162.331 84.4781 162.172C84.1795 162.004 83.7175 161.841 83.0921 161.682C82.5228 161.533 82.0561 161.383 81.6921 161.234C81.3375 161.075 81.0295 160.847 80.7681 160.548C80.5161 160.24 80.3901 159.839 80.3901 159.344C80.3901 158.952 80.5068 158.593 80.7401 158.266C80.9735 157.939 81.3048 157.683 81.7341 157.496C82.1635 157.3 82.6535 157.202 83.2041 157.202C84.0535 157.202 84.7395 157.417 85.2621 157.846C85.7848 158.275 86.0648 158.863 86.1021 159.61H84.8281C84.8001 159.209 84.6368 158.887 84.3381 158.644C84.0488 158.401 83.6568 158.28 83.1621 158.28C82.7048 158.28 82.3408 158.378 82.0701 158.574C81.7995 158.77 81.6641 159.027 81.6641 159.344C81.6641 159.596 81.7435 159.806 81.9021 159.974C82.0701 160.133 82.2755 160.263 82.5181 160.366C82.7701 160.459 83.1155 160.567 83.5541 160.688C84.1048 160.837 84.5528 160.987 84.8981 161.136C85.2435 161.276 85.5375 161.491 85.7801 161.78C86.0321 162.069 86.1628 162.447 86.1721 162.914C86.1721 163.334 86.0555 163.712 85.8221 164.048C85.5888 164.384 85.2575 164.65 84.8281 164.846C84.4081 165.033 83.9228 165.126 83.3721 165.126ZM94.867 157.202C95.5297 157.202 96.1083 157.347 96.603 157.636C97.107 157.925 97.4803 158.289 97.723 158.728V157.328H99.011V165.168C99.011 165.868 98.8617 166.489 98.563 167.03C98.2643 167.581 97.835 168.01 97.275 168.318C96.7243 168.626 96.0803 168.78 95.343 168.78C94.335 168.78 93.495 168.542 92.823 168.066C92.151 167.59 91.7543 166.941 91.633 166.12H92.893C93.033 166.587 93.3223 166.96 93.761 167.24C94.1997 167.529 94.727 167.674 95.343 167.674C96.043 167.674 96.6123 167.455 97.051 167.016C97.499 166.577 97.723 165.961 97.723 165.168V163.558C97.471 164.006 97.0977 164.379 96.603 164.678C96.1083 164.977 95.5297 165.126 94.867 165.126C94.1857 165.126 93.565 164.958 93.005 164.622C92.4543 164.286 92.0203 163.815 91.703 163.208C91.3857 162.601 91.227 161.911 91.227 161.136C91.227 160.352 91.3857 159.666 91.703 159.078C92.0203 158.481 92.4543 158.019 93.005 157.692C93.565 157.365 94.1857 157.202 94.867 157.202ZM97.723 161.15C97.723 160.571 97.6063 160.067 97.373 159.638C97.1397 159.209 96.8223 158.882 96.421 158.658C96.029 158.425 95.595 158.308 95.119 158.308C94.643 158.308 94.209 158.42 93.817 158.644C93.425 158.868 93.1123 159.195 92.879 159.624C92.6457 160.053 92.529 160.557 92.529 161.136C92.529 161.724 92.6457 162.237 92.879 162.676C93.1123 163.105 93.425 163.437 93.817 163.67C94.209 163.894 94.643 164.006 95.119 164.006C95.595 164.006 96.029 163.894 96.421 163.67C96.8223 163.437 97.1397 163.105 97.373 162.676C97.6063 162.237 97.723 161.729 97.723 161.15ZM107.968 157.328V165H106.694V163.866C106.451 164.258 106.111 164.566 105.672 164.79C105.243 165.005 104.767 165.112 104.244 165.112C103.647 165.112 103.11 164.991 102.634 164.748C102.158 164.496 101.78 164.123 101.5 163.628C101.229 163.133 101.094 162.531 101.094 161.822V157.328H102.354V161.654C102.354 162.41 102.545 162.993 102.928 163.404C103.311 163.805 103.833 164.006 104.496 164.006C105.177 164.006 105.714 163.796 106.106 163.376C106.498 162.956 106.694 162.345 106.694 161.542V157.328H107.968ZM109.643 161.136C109.643 160.352 109.802 159.666 110.119 159.078C110.436 158.481 110.87 158.019 111.421 157.692C111.981 157.365 112.602 157.202 113.283 157.202C113.955 157.202 114.538 157.347 115.033 157.636C115.528 157.925 115.896 158.289 116.139 158.728V157.328H117.427V165H116.139V163.572C115.887 164.02 115.509 164.393 115.005 164.692C114.51 164.981 113.932 165.126 113.269 165.126C112.588 165.126 111.972 164.958 111.421 164.622C110.87 164.286 110.436 163.815 110.119 163.208C109.802 162.601 109.643 161.911 109.643 161.136ZM116.139 161.15C116.139 160.571 116.022 160.067 115.789 159.638C115.556 159.209 115.238 158.882 114.837 158.658C114.445 158.425 114.011 158.308 113.535 158.308C113.059 158.308 112.625 158.42 112.233 158.644C111.841 158.868 111.528 159.195 111.295 159.624C111.062 160.053 110.945 160.557 110.945 161.136C110.945 161.724 111.062 162.237 111.295 162.676C111.528 163.105 111.841 163.437 112.233 163.67C112.625 163.894 113.059 164.006 113.535 164.006C114.011 164.006 114.445 163.894 114.837 163.67C115.238 163.437 115.556 163.105 115.789 162.676C116.022 162.237 116.139 161.729 116.139 161.15ZM120.854 158.574C121.078 158.135 121.395 157.795 121.806 157.552C122.226 157.309 122.735 157.188 123.332 157.188V158.504H122.996C121.568 158.504 120.854 159.279 120.854 160.828V165H119.58V157.328H120.854V158.574ZM124.327 161.136C124.327 160.352 124.485 159.666 124.803 159.078C125.12 158.481 125.554 158.019 126.105 157.692C126.665 157.365 127.285 157.202 127.967 157.202C128.639 157.202 129.222 157.347 129.717 157.636C130.211 157.925 130.58 158.289 130.823 158.728V157.328H132.111V165H130.823V163.572C130.571 164.02 130.193 164.393 129.689 164.692C129.194 164.981 128.615 165.126 127.953 165.126C127.271 165.126 126.655 164.958 126.105 164.622C125.554 164.286 125.12 163.815 124.803 163.208C124.485 162.601 124.327 161.911 124.327 161.136ZM130.823 161.15C130.823 160.571 130.706 160.067 130.473 159.638C130.239 159.209 129.922 158.882 129.521 158.658C129.129 158.425 128.695 158.308 128.219 158.308C127.743 158.308 127.309 158.42 126.917 158.644C126.525 158.868 126.212 159.195 125.979 159.624C125.745 160.053 125.629 160.557 125.629 161.136C125.629 161.724 125.745 162.237 125.979 162.676C126.212 163.105 126.525 163.437 126.917 163.67C127.309 163.894 127.743 164.006 128.219 164.006C128.695 164.006 129.129 163.894 129.521 163.67C129.922 163.437 130.239 163.105 130.473 162.676C130.706 162.237 130.823 161.729 130.823 161.15ZM138.002 157.188C138.935 157.188 139.691 157.473 140.27 158.042C140.848 158.602 141.138 159.414 141.138 160.478V165H139.878V160.66C139.878 159.895 139.686 159.311 139.304 158.91C138.921 158.499 138.398 158.294 137.736 158.294C137.064 158.294 136.527 158.504 136.126 158.924C135.734 159.344 135.538 159.955 135.538 160.758V165H134.264V157.328H135.538V158.42C135.79 158.028 136.13 157.725 136.56 157.51C136.998 157.295 137.479 157.188 138.002 157.188ZM144.773 158.378V162.9C144.773 163.273 144.852 163.539 145.011 163.698C145.169 163.847 145.445 163.922 145.837 163.922H146.775V165H145.627C144.917 165 144.385 164.837 144.031 164.51C143.676 164.183 143.499 163.647 143.499 162.9V158.378H142.505V157.328H143.499V155.396H144.773V157.328H146.775V158.378H144.773ZM155.318 160.87C155.318 161.113 155.304 161.369 155.276 161.64H149.144C149.191 162.396 149.448 162.989 149.914 163.418C150.39 163.838 150.964 164.048 151.636 164.048C152.187 164.048 152.644 163.922 153.008 163.67C153.382 163.409 153.643 163.063 153.792 162.634H155.164C154.959 163.371 154.548 163.973 153.932 164.44C153.316 164.897 152.551 165.126 151.636 165.126C150.908 165.126 150.255 164.963 149.676 164.636C149.107 164.309 148.659 163.847 148.332 163.25C148.006 162.643 147.842 161.943 147.842 161.15C147.842 160.357 148.001 159.661 148.318 159.064C148.636 158.467 149.079 158.009 149.648 157.692C150.227 157.365 150.89 157.202 151.636 157.202C152.364 157.202 153.008 157.361 153.568 157.678C154.128 157.995 154.558 158.434 154.856 158.994C155.164 159.545 155.318 160.17 155.318 160.87ZM154.002 160.604C154.002 160.119 153.895 159.703 153.68 159.358C153.466 159.003 153.172 158.737 152.798 158.56C152.434 158.373 152.028 158.28 151.58 158.28C150.936 158.28 150.386 158.485 149.928 158.896C149.48 159.307 149.224 159.876 149.158 160.604H154.002ZM164 160.87C164 161.113 163.986 161.369 163.958 161.64H157.826C157.873 162.396 158.129 162.989 158.596 163.418C159.072 163.838 159.646 164.048 160.318 164.048C160.869 164.048 161.326 163.922 161.69 163.67C162.063 163.409 162.325 163.063 162.474 162.634H163.846C163.641 163.371 163.23 163.973 162.614 164.44C161.998 164.897 161.233 165.126 160.318 165.126C159.59 165.126 158.937 164.963 158.358 164.636C157.789 164.309 157.341 163.847 157.014 163.25C156.687 162.643 156.524 161.943 156.524 161.15C156.524 160.357 156.683 159.661 157 159.064C157.317 158.467 157.761 158.009 158.33 157.692C158.909 157.365 159.571 157.202 160.318 157.202C161.046 157.202 161.69 157.361 162.25 157.678C162.81 157.995 163.239 158.434 163.538 158.994C163.846 159.545 164 160.17 164 160.87ZM162.684 160.604C162.684 160.119 162.577 159.703 162.362 159.358C162.147 159.003 161.853 158.737 161.48 158.56C161.116 158.373 160.71 158.28 160.262 158.28C159.618 158.28 159.067 158.485 158.61 158.896C158.162 159.307 157.905 159.876 157.84 160.604H162.684Z" fill="#6C7275"/>
</svg>
