<svg width="1121" height="44" viewBox="0 0 1121 44" fill="none" xmlns="http://www.w3.org/2000/svg">
<path d="M19.76 30.32H8.12L6.12 36H1.36L11.32 8.16H16.6L26.56 36H21.76L19.76 30.32ZM18.48 26.6L13.96 13.68L9.4 26.6H18.48ZM35.0506 17.16C35.7173 16.04 36.5973 15.1733 37.6906 14.56C38.8106 13.92 40.1306 13.6 41.6506 13.6V18.32H40.4906C38.704 18.32 37.344 18.7733 36.4106 19.68C35.504 20.5867 35.0506 22.16 35.0506 24.4V36H30.4906V13.96H35.0506V17.16ZM50.7622 17.68V29.88C50.7622 30.7067 50.9489 31.3067 51.3222 31.68C51.7222 32.0267 52.3889 32.2 53.3222 32.2H56.1222V36H52.5222C50.4689 36 48.8955 35.52 47.8022 34.56C46.7089 33.6 46.1622 32.04 46.1622 29.88V17.68H43.5622V13.96H46.1622V8.48H50.7622V13.96H56.1222V17.68H50.7622ZM62.245 11.04C61.4183 11.04 60.725 10.76 60.165 10.2C59.605 9.64 59.325 8.94667 59.325 8.12C59.325 7.29333 59.605 6.6 60.165 6.04C60.725 5.48 61.4183 5.2 62.245 5.2C63.045 5.2 63.725 5.48 64.285 6.04C64.845 6.6 65.125 7.29333 65.125 8.12C65.125 8.94667 64.845 9.64 64.285 10.2C63.725 10.76 63.045 11.04 62.245 11.04ZM64.485 13.96V36H59.925V13.96H64.485ZM68.5519 24.96C68.5519 22.6933 69.0052 20.7067 69.9119 19C70.8452 17.2667 72.1252 15.9333 73.7519 15C75.3785 14.0667 77.2452 13.6 79.3519 13.6C82.0185 13.6 84.2185 14.24 85.9519 15.52C87.7119 16.7733 88.8985 18.5733 89.5119 20.92H84.5919C84.1919 19.8267 83.5519 18.9733 82.6719 18.36C81.7919 17.7467 80.6852 17.44 79.3519 17.44C77.4852 17.44 75.9919 18.1067 74.8719 19.44C73.7785 20.7467 73.2319 22.5867 73.2319 24.96C73.2319 27.3333 73.7785 29.1867 74.8719 30.52C75.9919 31.8533 77.4852 32.52 79.3519 32.52C81.9919 32.52 83.7385 31.36 84.5919 29.04H89.5119C88.8719 31.28 87.6719 33.0667 85.9119 34.4C84.1519 35.7067 81.9652 36.36 79.3519 36.36C77.2452 36.36 75.3785 35.8933 73.7519 34.96C72.1252 34 70.8452 32.6667 69.9119 30.96C69.0052 29.2267 68.5519 27.2267 68.5519 24.96ZM98.2163 6.4V36H93.6563V6.4H98.2163ZM124.003 24.44C124.003 25.2667 123.95 26.0133 123.843 26.68H107.003C107.136 28.44 107.79 29.8533 108.963 30.92C110.136 31.9867 111.576 32.52 113.283 32.52C115.736 32.52 117.47 31.4933 118.483 29.44H123.403C122.736 31.4667 121.523 33.1333 119.763 34.44C118.03 35.72 115.87 36.36 113.283 36.36C111.176 36.36 109.283 35.8933 107.603 34.96C105.95 34 104.643 32.6667 103.683 30.96C102.75 29.2267 102.283 27.2267 102.283 24.96C102.283 22.6933 102.736 20.7067 103.643 19C104.576 17.2667 105.87 15.9333 107.523 15C109.203 14.0667 111.123 13.6 113.283 13.6C115.363 13.6 117.216 14.0533 118.843 14.96C120.47 15.8667 121.736 17.1467 122.643 18.8C123.55 20.4267 124.003 22.3067 124.003 24.44ZM119.243 23C119.216 21.32 118.616 19.9733 117.443 18.96C116.27 17.9467 114.816 17.44 113.083 17.44C111.51 17.44 110.163 17.9467 109.043 18.96C107.923 19.9467 107.256 21.2933 107.043 23H119.243ZM136.091 36.36C134.357 36.36 132.797 36.0533 131.411 35.44C130.051 34.8 128.971 33.9467 128.171 32.88C127.371 31.7867 126.944 30.5733 126.891 29.24H131.611C131.691 30.1733 132.131 30.96 132.931 31.6C133.757 32.2133 134.784 32.52 136.011 32.52C137.291 32.52 138.277 32.28 138.971 31.8C139.691 31.2933 140.051 30.6533 140.051 29.88C140.051 29.0533 139.651 28.44 138.851 28.04C138.077 27.64 136.837 27.2 135.131 26.72C133.477 26.2667 132.131 25.8267 131.091 25.4C130.051 24.9733 129.144 24.32 128.371 23.44C127.624 22.56 127.251 21.4 127.251 19.96C127.251 18.7867 127.597 17.72 128.291 16.76C128.984 15.7733 129.971 15 131.251 14.44C132.557 13.88 134.051 13.6 135.731 13.6C138.237 13.6 140.251 14.24 141.771 15.52C143.317 16.7733 144.144 18.4933 144.251 20.68H139.691C139.611 19.6933 139.211 18.9067 138.491 18.32C137.771 17.7333 136.797 17.44 135.571 17.44C134.371 17.44 133.451 17.6667 132.811 18.12C132.171 18.5733 131.851 19.1733 131.851 19.92C131.851 20.5067 132.064 21 132.491 21.4C132.917 21.8 133.437 22.12 134.051 22.36C134.664 22.5733 135.571 22.8533 136.771 23.2C138.371 23.6267 139.677 24.0667 140.691 24.52C141.731 24.9467 142.624 25.5867 143.371 26.44C144.117 27.2933 144.504 28.4267 144.531 29.84C144.531 31.0933 144.184 32.2133 143.491 33.2C142.797 34.1867 141.811 34.96 140.531 35.52C139.277 36.08 137.797 36.36 136.091 36.36Z" fill="black"/>
<mask id="path-2-inside-1_1_2098" fill="white">
<path d="M999 8H1121V36H999V8Z"/>
</mask>
<path d="M1121 35H999V37H1121V35Z" fill="#141718" mask="url(#path-2-inside-1_1_2098)"/>
<path d="M1000.28 16.3636H1002.41L1006.11 25.4091H1006.25L1009.95 16.3636H1012.09V28H1010.41V19.5795H1010.31L1006.88 27.983H1005.49L1002.06 19.5739H1001.95V28H1000.28V16.3636ZM1017.78 28.1761C1016.96 28.1761 1016.25 27.9886 1015.64 27.6136C1015.03 27.2386 1014.55 26.714 1014.22 26.0398C1013.88 25.3655 1013.71 24.5777 1013.71 23.6761C1013.71 22.7708 1013.88 21.9792 1014.22 21.3011C1014.55 20.6231 1015.03 20.0966 1015.64 19.7216C1016.25 19.3466 1016.96 19.1591 1017.78 19.1591C1018.6 19.1591 1019.31 19.3466 1019.92 19.7216C1020.53 20.0966 1021 20.6231 1021.34 21.3011C1021.68 21.9792 1021.85 22.7708 1021.85 23.6761C1021.85 24.5777 1021.68 25.3655 1021.34 26.0398C1021 26.714 1020.53 27.2386 1019.92 27.6136C1019.31 27.9886 1018.6 28.1761 1017.78 28.1761ZM1017.78 26.75C1018.31 26.75 1018.75 26.6098 1019.1 26.3295C1019.45 26.0492 1019.71 25.6761 1019.87 25.2102C1020.04 24.7443 1020.13 24.2311 1020.13 23.6705C1020.13 23.1136 1020.04 22.6023 1019.87 22.1364C1019.71 21.6667 1019.45 21.2898 1019.1 21.0057C1018.75 20.7216 1018.31 20.5795 1017.78 20.5795C1017.25 20.5795 1016.81 20.7216 1016.45 21.0057C1016.11 21.2898 1015.85 21.6667 1015.68 22.1364C1015.51 22.6023 1015.43 23.1136 1015.43 23.6705C1015.43 24.2311 1015.51 24.7443 1015.68 25.2102C1015.85 25.6761 1016.11 26.0492 1016.45 26.3295C1016.81 26.6098 1017.25 26.75 1017.78 26.75ZM1023.34 28V19.2727H1024.98V20.6591H1025.08C1025.23 20.1894 1025.51 19.8201 1025.92 19.5511C1026.32 19.2784 1026.78 19.142 1027.29 19.142C1027.4 19.142 1027.52 19.1458 1027.67 19.1534C1027.81 19.161 1027.93 19.1705 1028.01 19.1818V20.8068C1027.94 20.7879 1027.82 20.767 1027.65 20.7443C1027.47 20.7178 1027.3 20.7045 1027.13 20.7045C1026.72 20.7045 1026.37 20.7898 1026.05 20.9602C1025.74 21.1269 1025.5 21.3598 1025.31 21.6591C1025.13 21.9545 1025.04 22.2917 1025.04 22.6705V28H1023.34ZM1032.53 28.1761C1031.67 28.1761 1030.93 27.9924 1030.31 27.625C1029.69 27.2538 1029.22 26.733 1028.88 26.0625C1028.54 25.3883 1028.38 24.5985 1028.38 23.6932C1028.38 22.7992 1028.54 22.0114 1028.88 21.3295C1029.22 20.6477 1029.68 20.1155 1030.29 19.733C1030.89 19.3504 1031.6 19.1591 1032.41 19.1591C1032.9 19.1591 1033.38 19.2405 1033.84 19.4034C1034.31 19.5663 1034.72 19.822 1035.09 20.1705C1035.46 20.5189 1035.75 20.9716 1035.96 21.5284C1036.17 22.0814 1036.28 22.7538 1036.28 23.5455V24.1477H1029.34V22.875H1034.61C1034.61 22.428 1034.52 22.0322 1034.34 21.6875C1034.16 21.339 1033.9 21.0644 1033.57 20.8636C1033.25 20.6629 1032.86 20.5625 1032.42 20.5625C1031.95 20.5625 1031.53 20.6799 1031.17 20.9148C1030.82 21.1458 1030.55 21.4489 1030.36 21.8239C1030.17 22.1951 1030.07 22.5985 1030.07 23.0341V24.0284C1030.07 24.6117 1030.17 25.108 1030.38 25.517C1030.59 25.9261 1030.88 26.2386 1031.25 26.4545C1031.62 26.6667 1032.05 26.7727 1032.55 26.7727C1032.87 26.7727 1033.16 26.7273 1033.43 26.6364C1033.69 26.5417 1033.92 26.4015 1034.12 26.2159C1034.31 26.0303 1034.46 25.8011 1034.56 25.5284L1036.17 25.8182C1036.04 26.2917 1035.81 26.7064 1035.47 27.0625C1035.15 27.4148 1034.73 27.6894 1034.23 27.8864C1033.73 28.0795 1033.17 28.1761 1032.53 28.1761ZM1042.71 28H1040.85L1045.04 16.3636H1047.07L1051.25 28H1049.39L1046.1 18.4773H1046.01L1042.71 28ZM1043.03 23.4432H1049.07V24.9205H1043.03V23.4432ZM1052.4 28V19.2727H1054.04V20.6591H1054.13C1054.29 20.1894 1054.57 19.8201 1054.97 19.5511C1055.38 19.2784 1055.84 19.142 1056.35 19.142C1056.45 19.142 1056.58 19.1458 1056.72 19.1534C1056.87 19.161 1056.99 19.1705 1057.07 19.1818V20.8068C1057 20.7879 1056.88 20.767 1056.71 20.7443C1056.53 20.7178 1056.36 20.7045 1056.18 20.7045C1055.78 20.7045 1055.42 20.7898 1055.11 20.9602C1054.8 21.1269 1054.55 21.3598 1054.37 21.6591C1054.19 21.9545 1054.1 22.2917 1054.1 22.6705V28H1052.4ZM1062.73 19.2727V20.6364H1057.96V19.2727H1062.73ZM1059.24 17.1818H1060.94V25.4375C1060.94 25.767 1060.99 26.0152 1061.09 26.1818C1061.18 26.3447 1061.31 26.4564 1061.47 26.517C1061.63 26.5739 1061.8 26.6023 1061.98 26.6023C1062.12 26.6023 1062.24 26.5928 1062.34 26.5739C1062.44 26.5549 1062.52 26.5398 1062.58 26.5284L1062.89 27.9318C1062.79 27.9697 1062.65 28.0076 1062.47 28.0455C1062.29 28.0871 1062.06 28.1098 1061.79 28.1136C1061.34 28.1212 1060.92 28.0417 1060.54 27.875C1060.15 27.7083 1059.84 27.4508 1059.6 27.1023C1059.36 26.7538 1059.24 26.3163 1059.24 25.7898V17.1818ZM1064.21 28V19.2727H1065.91V28H1064.21ZM1065.07 17.9261C1064.77 17.9261 1064.52 17.8277 1064.3 17.6307C1064.1 17.4299 1063.99 17.1913 1063.99 16.9148C1063.99 16.6345 1064.1 16.3958 1064.3 16.1989C1064.52 15.9981 1064.77 15.8977 1065.07 15.8977C1065.36 15.8977 1065.61 15.9981 1065.82 16.1989C1066.03 16.3958 1066.14 16.6345 1066.14 16.9148C1066.14 17.1913 1066.03 17.4299 1065.82 17.6307C1065.61 17.8277 1065.36 17.9261 1065.07 17.9261ZM1071.47 28.1761C1070.62 28.1761 1069.9 27.9848 1069.29 27.6023C1068.68 27.2159 1068.21 26.6837 1067.89 26.0057C1067.56 25.3277 1067.4 24.5511 1067.4 23.6761C1067.4 22.7898 1067.57 22.0076 1067.9 21.3295C1068.23 20.6477 1068.7 20.1155 1069.31 19.733C1069.92 19.3504 1070.63 19.1591 1071.45 19.1591C1072.11 19.1591 1072.7 19.2822 1073.22 19.5284C1073.74 19.7708 1074.16 20.1117 1074.48 20.5511C1074.8 20.9905 1074.99 21.5038 1075.05 22.0909H1073.4C1073.31 21.6818 1073.1 21.3295 1072.78 21.0341C1072.45 20.7386 1072.02 20.5909 1071.48 20.5909C1071.01 20.5909 1070.59 20.7159 1070.24 20.9659C1069.88 21.2121 1069.61 21.5644 1069.41 22.0227C1069.21 22.4773 1069.12 23.0152 1069.12 23.6364C1069.12 24.2727 1069.21 24.822 1069.41 25.2841C1069.6 25.7462 1069.87 26.1042 1070.22 26.358C1070.58 26.6117 1071 26.7386 1071.48 26.7386C1071.8 26.7386 1072.09 26.6799 1072.35 26.5625C1072.62 26.4413 1072.84 26.2689 1073.02 26.0455C1073.2 25.822 1073.33 25.553 1073.4 25.2386H1075.05C1074.99 25.803 1074.81 26.3068 1074.5 26.75C1074.2 27.1932 1073.78 27.5417 1073.27 27.7955C1072.76 28.0492 1072.16 28.1761 1071.47 28.1761ZM1078.17 16.3636V28H1076.47V16.3636H1078.17ZM1083.82 28.1761C1082.96 28.1761 1082.22 27.9924 1081.59 27.625C1080.98 27.2538 1080.5 26.733 1080.16 26.0625C1079.83 25.3883 1079.66 24.5985 1079.66 23.6932C1079.66 22.7992 1079.83 22.0114 1080.16 21.3295C1080.5 20.6477 1080.97 20.1155 1081.57 19.733C1082.18 19.3504 1082.89 19.1591 1083.7 19.1591C1084.19 19.1591 1084.67 19.2405 1085.13 19.4034C1085.59 19.5663 1086.01 19.822 1086.37 20.1705C1086.74 20.5189 1087.03 20.9716 1087.24 21.5284C1087.45 22.0814 1087.56 22.7538 1087.56 23.5455V24.1477H1080.62V22.875H1085.9C1085.9 22.428 1085.8 22.0322 1085.62 21.6875C1085.44 21.339 1085.19 21.0644 1084.86 20.8636C1084.53 20.6629 1084.15 20.5625 1083.71 20.5625C1083.23 20.5625 1082.81 20.6799 1082.46 20.9148C1082.11 21.1458 1081.83 21.4489 1081.64 21.8239C1081.45 22.1951 1081.36 22.5985 1081.36 23.0341V24.0284C1081.36 24.6117 1081.46 25.108 1081.66 25.517C1081.87 25.9261 1082.16 26.2386 1082.53 26.4545C1082.9 26.6667 1083.34 26.7727 1083.83 26.7727C1084.15 26.7727 1084.45 26.7273 1084.71 26.6364C1084.98 26.5417 1085.21 26.4015 1085.4 26.2159C1085.59 26.0303 1085.74 25.8011 1085.84 25.5284L1087.45 25.8182C1087.32 26.2917 1087.09 26.7064 1086.76 27.0625C1086.43 27.4148 1086.01 27.6894 1085.51 27.8864C1085.02 28.0795 1084.45 28.1761 1083.82 28.1761ZM1095.58 21.4034L1094.05 21.6761C1093.98 21.4792 1093.88 21.2917 1093.74 21.1136C1093.6 20.9356 1093.42 20.7898 1093.18 20.6761C1092.95 20.5625 1092.65 20.5057 1092.3 20.5057C1091.82 20.5057 1091.42 20.6136 1091.1 20.8295C1090.77 21.0417 1090.61 21.3163 1090.61 21.6534C1090.61 21.9451 1090.72 22.1799 1090.94 22.358C1091.15 22.536 1091.5 22.6818 1091.98 22.7955L1093.37 23.1136C1094.17 23.2992 1094.77 23.5852 1095.16 23.9716C1095.56 24.358 1095.76 24.8598 1095.76 25.4773C1095.76 26 1095.6 26.4659 1095.3 26.875C1095 27.2803 1094.58 27.5985 1094.05 27.8295C1093.51 28.0606 1092.89 28.1761 1092.19 28.1761C1091.21 28.1761 1090.41 27.9678 1089.8 27.5511C1089.18 27.1307 1088.8 26.5341 1088.66 25.7614L1090.3 25.5114C1090.4 25.9394 1090.61 26.2633 1090.93 26.483C1091.25 26.6989 1091.66 26.8068 1092.18 26.8068C1092.73 26.8068 1093.18 26.6913 1093.51 26.4602C1093.84 26.2254 1094.01 25.9394 1094.01 25.6023C1094.01 25.3295 1093.91 25.1004 1093.7 24.9148C1093.5 24.7292 1093.19 24.589 1092.78 24.4943L1091.3 24.1705C1090.49 23.9848 1089.88 23.6894 1089.49 23.2841C1089.11 22.8788 1088.91 22.3655 1088.91 21.7443C1088.91 21.2292 1089.06 20.7784 1089.35 20.392C1089.63 20.0057 1090.03 19.7045 1090.54 19.4886C1091.05 19.2689 1091.63 19.1591 1092.28 19.1591C1093.23 19.1591 1093.97 19.3636 1094.51 19.7727C1095.05 20.178 1095.41 20.7216 1095.58 21.4034Z" fill="#141718"/>
<path d="M1105.17 22H1116.83" stroke="#141718" stroke-width="1.25" stroke-linecap="round" stroke-linejoin="round"/>
<path d="M1111.83 27L1116.83 22" stroke="#141718" stroke-width="1.25" stroke-linecap="round" stroke-linejoin="round"/>
<path d="M1111.83 17L1116.83 22" stroke="#141718" stroke-width="1.25" stroke-linecap="round" stroke-linejoin="round"/>
</svg>
