<svg width="91" height="24" viewBox="0 0 91 24" fill="none" xmlns="http://www.w3.org/2000/svg">
<mask id="path-1-inside-1_1_1994" fill="white">
<path d="M0 0H91V24H0V0Z"/>
</mask>
<path d="M91 23H0V25H91V23Z" fill="#377DFF" mask="url(#path-1-inside-1_1_1994)"/>
<path d="M6.67188 9.4929C6.61884 9.02225 6.40009 8.65767 6.01562 8.39915C5.63116 8.13731 5.14725 8.00639 4.56392 8.00639C4.14631 8.00639 3.78504 8.07268 3.48011 8.20526C3.17519 8.33452 2.93821 8.51349 2.76918 8.74219C2.60346 8.96757 2.5206 9.22443 2.5206 9.51278C2.5206 9.75473 2.57694 9.96354 2.68963 10.1392C2.80563 10.3149 2.95644 10.4624 3.14205 10.5817C3.33097 10.6977 3.53314 10.7955 3.74858 10.875C3.96402 10.9512 4.17116 11.0142 4.37003 11.0639L5.36435 11.3224C5.68916 11.402 6.02225 11.5097 6.36364 11.6456C6.70502 11.7815 7.02154 11.9605 7.31321 12.1825C7.60488 12.4046 7.8402 12.6797 8.01918 13.0078C8.20147 13.3359 8.29261 13.7287 8.29261 14.1861C8.29261 14.7628 8.14347 15.2749 7.84517 15.7223C7.55019 16.1697 7.12098 16.5227 6.55753 16.7812C5.9974 17.0398 5.3196 17.169 4.52415 17.169C3.76184 17.169 3.10227 17.0481 2.54545 16.8061C1.98864 16.5642 1.55279 16.2211 1.23793 15.777C0.923059 15.3295 0.749053 14.7992 0.715909 14.1861H2.2571C2.28693 14.554 2.40625 14.8606 2.61506 15.1058C2.82718 15.3478 3.0973 15.5284 3.42543 15.6477C3.75687 15.7637 4.11979 15.8217 4.5142 15.8217C4.94839 15.8217 5.33452 15.7538 5.67259 15.6179C6.01397 15.4787 6.28243 15.2865 6.47798 15.0412C6.67353 14.7926 6.77131 14.5026 6.77131 14.1712C6.77131 13.8696 6.68513 13.6226 6.51278 13.4304C6.34375 13.2382 6.1134 13.0791 5.82173 12.9531C5.53338 12.8272 5.20691 12.7161 4.84233 12.62L3.6392 12.2919C2.82386 12.0698 2.17756 11.7434 1.70028 11.3125C1.22633 10.8816 0.989347 10.3116 0.989347 9.60227C0.989347 9.01562 1.14844 8.50355 1.46662 8.06605C1.7848 7.62855 2.21567 7.28883 2.75923 7.04688C3.30279 6.80161 3.91596 6.67898 4.59872 6.67898C5.28812 6.67898 5.89631 6.79995 6.4233 7.0419C6.9536 7.28385 7.37121 7.61695 7.67614 8.04119C7.98106 8.46212 8.14015 8.94602 8.15341 9.4929H6.67188ZM11.4956 12.4659V17H10.0091V6.81818H11.4757V10.6065H11.5701C11.7491 10.1955 12.0225 9.86908 12.3904 9.62713C12.7583 9.38518 13.2389 9.2642 13.8322 9.2642C14.3559 9.2642 14.8133 9.37192 15.2044 9.58736C15.5988 9.80279 15.9037 10.1243 16.1191 10.5518C16.3379 10.9761 16.4473 11.5064 16.4473 12.1428V17H14.9608V12.3217C14.9608 11.7616 14.8166 11.3274 14.5282 11.0192C14.2399 10.7076 13.8388 10.5518 13.3251 10.5518C12.9738 10.5518 12.6589 10.6264 12.3805 10.7756C12.1054 10.9247 11.8883 11.1435 11.7292 11.4318C11.5734 11.7169 11.4956 12.0616 11.4956 12.4659ZM21.6475 17.1541C20.9316 17.1541 20.3069 16.9901 19.7733 16.6619C19.2396 16.3338 18.8253 15.8748 18.5304 15.2848C18.2354 14.6948 18.0879 14.0054 18.0879 13.2166C18.0879 12.4245 18.2354 11.7318 18.5304 11.1385C18.8253 10.5452 19.2396 10.0845 19.7733 9.75639C20.3069 9.42827 20.9316 9.2642 21.6475 9.2642C22.3635 9.2642 22.9882 9.42827 23.5218 9.75639C24.0555 10.0845 24.4698 10.5452 24.7647 11.1385C25.0597 11.7318 25.2072 12.4245 25.2072 13.2166C25.2072 14.0054 25.0597 14.6948 24.7647 15.2848C24.4698 15.8748 24.0555 16.3338 23.5218 16.6619C22.9882 16.9901 22.3635 17.1541 21.6475 17.1541ZM21.6525 15.9062C22.1165 15.9062 22.501 15.7836 22.8059 15.5384C23.1109 15.2931 23.3362 14.9666 23.4821 14.5589C23.6312 14.1513 23.7058 13.7022 23.7058 13.2116C23.7058 12.7244 23.6312 12.277 23.4821 11.8693C23.3362 11.4583 23.1109 11.1286 22.8059 10.88C22.501 10.6314 22.1165 10.5071 21.6525 10.5071C21.1852 10.5071 20.7974 10.6314 20.4892 10.88C20.1842 11.1286 19.9572 11.4583 19.8081 11.8693C19.6622 12.277 19.5893 12.7244 19.5893 13.2116C19.5893 13.7022 19.6622 14.1513 19.8081 14.5589C19.9572 14.9666 20.1842 15.2931 20.4892 15.5384C20.7974 15.7836 21.1852 15.9062 21.6525 15.9062ZM26.8665 19.8636V9.36364H28.3182V10.6016H28.4425C28.5286 10.4425 28.6529 10.2585 28.8153 10.0497C28.9777 9.84091 29.2031 9.65862 29.4915 9.50284C29.7798 9.34375 30.161 9.2642 30.6349 9.2642C31.2514 9.2642 31.8016 9.41998 32.2855 9.73153C32.7694 10.0431 33.1489 10.4922 33.424 11.0788C33.7024 11.6655 33.8416 12.3714 33.8416 13.1967C33.8416 14.022 33.7041 14.7296 33.429 15.3196C33.1539 15.9062 32.776 16.3587 32.2955 16.6768C31.8149 16.9917 31.2663 17.1491 30.6499 17.1491C30.1858 17.1491 29.8063 17.0713 29.5114 16.9155C29.2197 16.7597 28.991 16.5774 28.8253 16.3686C28.6596 16.1598 28.532 15.9742 28.4425 15.8118H28.353V19.8636H26.8665ZM28.3232 13.1818C28.3232 13.7187 28.401 14.1894 28.5568 14.5938C28.7126 14.9981 28.938 15.3146 29.233 15.5433C29.5279 15.7687 29.8892 15.8814 30.3168 15.8814C30.7609 15.8814 31.1321 15.7637 31.4304 15.5284C31.7287 15.2898 31.9541 14.9666 32.1065 14.5589C32.2623 14.1513 32.3402 13.6922 32.3402 13.1818C32.3402 12.678 32.264 12.2256 32.1115 11.8246C31.9624 11.4235 31.737 11.107 31.4354 10.875C31.1371 10.643 30.7642 10.527 30.3168 10.527C29.8859 10.527 29.5213 10.638 29.223 10.8601C28.928 11.0821 28.7043 11.392 28.5518 11.7898C28.3994 12.1875 28.3232 12.6515 28.3232 13.1818ZM47.5495 6.81818V17H46.1376L40.9622 9.53267H40.8677V17H39.3315V6.81818H40.7534L45.9338 14.2955H46.0282V6.81818H47.5495ZM52.8878 17.1541C52.1719 17.1541 51.5471 16.9901 51.0135 16.6619C50.4799 16.3338 50.0656 15.8748 49.7706 15.2848C49.4756 14.6948 49.3281 14.0054 49.3281 13.2166C49.3281 12.4245 49.4756 11.7318 49.7706 11.1385C50.0656 10.5452 50.4799 10.0845 51.0135 9.75639C51.5471 9.42827 52.1719 9.2642 52.8878 9.2642C53.6037 9.2642 54.2285 9.42827 54.7621 9.75639C55.2957 10.0845 55.71 10.5452 56.005 11.1385C56.3 11.7318 56.4474 12.4245 56.4474 13.2166C56.4474 14.0054 56.3 14.6948 56.005 15.2848C55.71 15.8748 55.2957 16.3338 54.7621 16.6619C54.2285 16.9901 53.6037 17.1541 52.8878 17.1541ZM52.8928 15.9062C53.3568 15.9062 53.7412 15.7836 54.0462 15.5384C54.3511 15.2931 54.5765 14.9666 54.7223 14.5589C54.8714 14.1513 54.946 13.7022 54.946 13.2116C54.946 12.7244 54.8714 12.277 54.7223 11.8693C54.5765 11.4583 54.3511 11.1286 54.0462 10.88C53.7412 10.6314 53.3568 10.5071 52.8928 10.5071C52.4254 10.5071 52.0376 10.6314 51.7294 10.88C51.4245 11.1286 51.1974 11.4583 51.0483 11.8693C50.9025 12.277 50.8295 12.7244 50.8295 13.2116C50.8295 13.7022 50.9025 14.1513 51.0483 14.5589C51.1974 14.9666 51.4245 15.2931 51.7294 15.5384C52.0376 15.7836 52.4254 15.9062 52.8928 15.9062ZM59.5298 17L57.2827 9.36364H58.8189L60.3153 14.9716H60.3899L61.8913 9.36364H63.4276L64.919 14.9467H64.9936L66.4801 9.36364H68.0163L65.7741 17H64.2578L62.7067 11.4865H62.5923L61.0412 17H59.5298Z" fill="#377DFF"/>
<path d="M76.75 12H87.25" stroke="#377DFF" stroke-width="1.125" stroke-linecap="round" stroke-linejoin="round"/>
<path d="M82.75 16.5L87.25 12" stroke="#377DFF" stroke-width="1.125" stroke-linecap="round" stroke-linejoin="round"/>
<path d="M82.75 7.5L87.25 12" stroke="#377DFF" stroke-width="1.125" stroke-linecap="round" stroke-linejoin="round"/>
</svg>
